<?xml version="1.0" standalone="no"?>
<!DOCTYPE svg PUBLIC "-//W3C//DTD SVG 20010904//EN"
 "http://www.w3.org/TR/2001/REC-SVG-20010904/DTD/svg10.dtd">
<svg version="1.0" xmlns="http://www.w3.org/2000/svg"
 width="335.000000pt" height="402.000000pt" viewBox="0 0 335.000000 402.000000"
 preserveAspectRatio="xMidYMid meet">

<g transform="translate(0.000000,402.000000) scale(0.100000,-0.100000)"
fill="#000000" stroke="none">
<path d="M804 3990 c-12 -4 -31 -21 -43 -36 -21 -26 -21 -32 -21 -481 l0 -455
29 -29 c40 -39 97 -41 135 -3 l26 27 0 461 c0 422 -2 463 -18 482 -32 40 -67
51 -108 34z"/>
<path d="M2488 3984 c-58 -31 -58 -33 -58 -509 0 -454 1 -462 44 -497 43 -36
117 -16 145 39 8 15 11 156 11 458 0 478 0 479 -60 510 -36 18 -47 18 -82 -1z"/>
<path d="M30 1755 l0 -1735 1655 0 1655 0 0 1735 0 1735 -302 -2 -303 -3 -3
-102 c-3 -99 -2 -104 26 -142 40 -54 56 -118 50 -194 -7 -78 -34 -133 -93
-185 -87 -77 -216 -93 -318 -42 -154 77 -203 283 -102 420 23 31 25 43 25 142
l0 108 -637 -2 -638 -3 -3 -99 c-3 -91 -1 -102 22 -135 106 -154 62 -348 -99
-434 -58 -32 -193 -31 -252 1 -101 53 -157 143 -157 252 1 66 30 156 60 181
10 9 14 40 14 125 l0 114 -300 0 -300 0 0 -1735z m3040 -285 l0 -1170 -1390 0
-1390 0 0 1163 c0 640 3 1167 7 1170 3 4 629 7 1390 7 l1383 0 0 -1170z"/>
<path d="M1530 2120 l0 -170 165 0 165 0 0 170 0 170 -165 0 -165 0 0 -170z"/>
<path d="M2010 2120 l0 -170 165 0 165 0 0 170 0 170 -165 0 -165 0 0 -170z"/>
<path d="M2500 2120 l0 -170 165 0 165 0 0 170 0 170 -165 0 -165 0 0 -170z"/>
<path d="M560 1640 l0 -170 165 0 165 0 0 170 0 170 -165 0 -165 0 0 -170z"/>
<path d="M1050 1640 l0 -170 165 0 165 0 0 170 0 170 -165 0 -165 0 0 -170z"/>
<path d="M1530 1640 l0 -170 165 0 165 0 0 170 0 170 -165 0 -165 0 0 -170z"/>
<path d="M2010 1640 l0 -170 165 0 165 0 0 170 0 170 -165 0 -165 0 0 -170z"/>
<path d="M2500 1640 l0 -170 165 0 165 0 0 170 0 170 -165 0 -165 0 0 -170z"/>
<path d="M560 1160 l0 -170 165 0 165 0 0 170 0 170 -165 0 -165 0 0 -170z"/>
<path d="M1050 1160 l0 -170 165 0 165 0 0 170 0 170 -165 0 -165 0 0 -170z"/>
<path d="M1530 1160 l0 -170 165 0 165 0 0 170 0 170 -165 0 -165 0 0 -170z"/>
<path d="M2010 1160 l0 -170 165 0 165 0 0 170 0 170 -165 0 -165 0 0 -170z"/>
<path d="M2500 1160 l0 -170 165 0 165 0 0 170 0 170 -165 0 -165 0 0 -170z"/>
<path d="M560 680 l0 -170 165 0 165 0 0 170 0 170 -165 0 -165 0 0 -170z"/>
<path d="M1050 680 l0 -170 165 0 165 0 0 170 0 170 -165 0 -165 0 0 -170z"/>
<path d="M1530 680 l0 -170 165 0 165 0 0 170 0 170 -165 0 -165 0 0 -170z"/>
<path d="M2010 680 l0 -170 165 0 165 0 0 170 0 170 -165 0 -165 0 0 -170z"/>
</g>
</svg>
